<svg id="Capa_1" enable-background="new 0 0 512 512" height="512" viewBox="0 0 512 512" width="512" xmlns="http://www.w3.org/2000/svg"><g><path d="m0 481.765h512v30h-512z"/><path d="m256 .235-256 51.34v85.29h21.12v29.89l89.76.23v-30.12h289.74v30h90.26v-30h21.12v-85.29z"/><path d="m21.12 196.755v255.01h89.76v-254.78z"/><path d="m400.62 196.865h90.26v254.9h-90.26z"/><path d="m140.63 432.485h229.67l.08-34.99-78.91-60.67-51.59 32.38-29.65-19.93-69.49 39.74z"/><path d="m240.44 333.435 51.31-32.21 78.72 59.03.4-163.39h-229.67l-.38 157.58 70.83-40.37zm-39.27-86.91h30v30h-30z"/></g></svg>